<svg xmlns="http://www.w3.org/2000/svg" viewBox="0 0 59.63 95.78"><path d="M31,3.86C29.17,7.61,27.28,11.29,25.39,15s-3.85,7.34-5.84,11-4,7.25-6,10.88L7.43,47.61v-1.5L13.57,56.9c2,3.62,4,7.22,6,10.87s3.91,7.3,5.83,11S29.18,86.11,31,89.86c-2.36-3.42-4.6-6.9-6.85-10.38s-4.42-7-6.58-10.54-4.28-7.08-6.42-10.62L4.83,47.61l-.44-.75.44-.75L11.11,35.4c2.14-3.54,4.24-7.11,6.42-10.63s4.37-7,6.59-10.53S28.6,7.28,31,3.86Z"/><path d="M51.61,3.14C49.82,6.89,47.93,10.57,46,14.26s-3.84,7.33-5.83,11-4,7.25-6,10.87L28.08,46.89v-1.5l6.14,10.79c2,3.63,4,7.22,6,10.88S44.12,74.35,46,78s3.79,7.37,5.57,11.12c-2.36-3.41-4.6-6.9-6.85-10.38s-4.42-7-6.58-10.53S33.9,61.14,31.76,57.6L25.48,46.89,25,46.14l.44-.75,6.28-10.71c2.14-3.54,4.23-7.11,6.42-10.62s4.37-7,6.59-10.53S49.25,6.56,51.61,3.14Z"/></svg>