<svg id="Layer_1" data-name="Layer 1" xmlns="http://www.w3.org/2000/svg" viewBox="0 0 1200.01 329.57"><defs><style>.cls-1,.cls-3{fill:#402020;}.cls-2{fill:#a81f23;}.cls-3{font-size:64.84px;font-family:Quicksand-Regular, Quicksand;}</style></defs><path class="cls-1" d="M703.15,389.43q49.13,0,81.41,35.55,29.36,32.43,29.35,76.77,0,44.55-31,77.85t-79.75,33.31q-48.93,0-79.94-33.31t-31-77.85q0-44.14,29.36-76.57Q653.83,389.42,703.15,389.43Zm-.1,26.76q-34.11,0-58.61,25.2t-24.51,60.95a86.46,86.46,0,0,0,11.18,43,79.11,79.11,0,0,0,30.19,30.76,85.84,85.84,0,0,0,83.51,0A79.17,79.17,0,0,0,775,545.32a86.45,86.45,0,0,0,11.17-43q0-35.74-24.6-60.95T703.05,416.19Z" transform="translate(-341.57 -379.38)"/><path class="cls-1" d="M703.15,622.74c-35.3,0-64.62-12.26-87.13-36.44-22.34-24-33.66-52.42-33.66-84.55,0-31.81,10.73-59.79,31.9-83.17,23.36-25.86,53.27-39,88.89-39s65.32,13,88.69,38.77c21.17,23.4,31.9,51.45,31.9,83.38,0,32.13-11.32,60.57-33.65,84.55C767.58,610.48,738.32,622.74,703.15,622.74Zm0-223.48c-30.25,0-54.55,10.63-74.31,32.51-18,19.93-26.81,42.82-26.81,70,0,27.37,9.28,50.65,28.38,71.15,18.9,20.3,42.7,30.17,72.74,30.17s53.64-9.87,72.55-30.17c19.1-20.51,28.38-43.78,28.38-71.15s-8.77-50.24-26.81-70.17C757.52,409.84,733.27,399.26,703.15,399.26Zm-.1,197.5a92.78,92.78,0,0,1-46.62-12.14,89.1,89.1,0,0,1-33.9-34.5,96.48,96.48,0,0,1-12.43-47.78c0-26.37,9.18-49.18,27.29-67.8s40.27-28.18,65.66-28.18,47.31,9.48,65.55,28.16S796,476,796,502.34a96.56,96.56,0,0,1-12.44,47.79,89.12,89.12,0,0,1-33.89,34.49A92.84,92.84,0,0,1,703.05,596.76Zm0-170.74c-20.15,0-37,7.27-51.56,22.23S629.77,481,629.77,502.34a77.14,77.14,0,0,0,9.91,38.17,68.89,68.89,0,0,0,26.49,27,76,76,0,0,0,73.77,0,68.94,68.94,0,0,0,26.48-27,77.15,77.15,0,0,0,9.92-38.17c0-21.36-7.13-39-21.81-54.08S723.09,426,703.05,426Z" transform="translate(-341.57 -379.38)"/><path class="cls-1" d="M561.86,519.51a166.06,166.06,0,0,1-11.47,13.26,156.89,156.89,0,0,1-18.79,16.76A78.06,78.06,0,0,1,504,576a85.84,85.84,0,0,1-83.51,0,79.1,79.1,0,0,1-30.19-30.76,86.32,86.32,0,0,1-11.17-43q0-35.76,24.49-60.94t58.63-25.2q33.89,0,58.51,25.2a88.27,88.27,0,0,1,13.34,17.41q3-4.8,5.76-9.37c1.63-2.68,3.2-5.3,4.7-7.83,1.91-3.2,3.71-6.28,5.4-9.21q-2.93-3.78-6.21-7.41-32.28-35.56-81.42-35.55-49.29,0-81.61,35.74-29.33,32.42-29.34,76.57,0,44.54,31,77.85t79.92,33.3q48.75,0,79.76-33.3,30.45-32.68,31-76.21A177.08,177.08,0,0,1,561.86,519.51Z" transform="translate(-341.57 -379.38)"/><path class="cls-1" d="M531.6,549.53A148.18,148.18,0,0,1,489,572.21a72.38,72.38,0,0,1-13.13,3.59.26.26,0,0,1-.11,0c-1.77.3-3.56.57-5.37.72a75.9,75.9,0,0,1-45-9.11,68.74,68.74,0,0,1-26.48-27A76.91,76.91,0,0,1,389,502.23c0-21.37,7.1-39.07,21.72-54.08s31.4-22.22,51.57-22.22,36.86,7.25,51.48,22.22a77.57,77.57,0,0,1,14.36,20.09q3.1-4.86,6-9.54t5.76-9.37a101.91,101.91,0,0,0-12.06-14.93c-18.25-18.68-40.32-28.14-65.55-28.14-25.39,0-47.48,9.46-65.68,28.17s-27.27,41.42-27.27,67.8A96.57,96.57,0,0,0,381.73,550a89,89,0,0,0,33.91,34.5,95.67,95.67,0,0,0,93.25,0A89,89,0,0,0,542.78,550a95.62,95.62,0,0,0,7.61-17.24A156.89,156.89,0,0,1,531.6,549.53ZM582.16,487c-2.86,5.82-5.9,11.23-9.07,16.33a177.08,177.08,0,0,1-11.23,16.23c-3.26,19.84-12.15,37.39-26.94,53.27C516,593.1,492.27,603,462.35,603s-53.83-9.86-72.73-30.18c-19.1-20.49-28.39-43.76-28.39-71.14,0-27.16,8.76-50,26.81-70,19.78-21.87,44.07-32.49,74.31-32.49s54.39,10.58,74.12,32.32a110.45,110.45,0,0,1,8.11,10c1.91-3.2,3.71-6.28,5.4-9.21,1.88-3.25,3.63-6.32,5.25-9.18-1.35-1.64-2.74-3.25-4.19-4.85-23.38-25.72-53.2-38.76-88.69-38.76s-65.52,13.11-88.88,39c-21.17,23.38-31.9,51.34-31.9,83.16,0,32.14,11.32,60.59,33.65,84.56,22.52,24.16,51.82,36.42,87.13,36.42s64.44-12.26,86.95-36.42c22.33-24,33.64-52.42,33.64-84.56A136.64,136.64,0,0,0,582.16,487ZM531.6,549.53A148.18,148.18,0,0,1,489,572.21a72.38,72.38,0,0,1-13.13,3.59.26.26,0,0,1-.11,0c-1.77.3-3.56.57-5.37.72a75.9,75.9,0,0,1-45-9.11,68.74,68.74,0,0,1-26.48-27A76.91,76.91,0,0,1,389,502.23c0-21.37,7.1-39.07,21.72-54.08s31.4-22.22,51.57-22.22,36.86,7.25,51.48,22.22a77.57,77.57,0,0,1,14.36,20.09q3.1-4.86,6-9.54t5.76-9.37a101.91,101.91,0,0,0-12.06-14.93c-18.25-18.68-40.32-28.14-65.55-28.14-25.39,0-47.48,9.46-65.68,28.17s-27.27,41.42-27.27,67.8A96.57,96.57,0,0,0,381.73,550a89,89,0,0,0,33.91,34.5,95.67,95.67,0,0,0,93.25,0A89,89,0,0,0,542.78,550a95.62,95.62,0,0,0,7.61-17.24A156.89,156.89,0,0,1,531.6,549.53Zm0,0A148.18,148.18,0,0,1,489,572.21a72.38,72.38,0,0,1-13.13,3.59.26.26,0,0,1-.11,0c-1.77.3-3.56.57-5.37.72a75.9,75.9,0,0,1-45-9.11,68.74,68.74,0,0,1-26.48-27A76.91,76.91,0,0,1,389,502.23c0-21.37,7.1-39.07,21.72-54.08s31.4-22.22,51.57-22.22,36.86,7.25,51.48,22.22a77.57,77.57,0,0,1,14.36,20.09q3.1-4.86,6-9.54t5.76-9.37a101.91,101.91,0,0,0-12.06-14.93c-18.25-18.68-40.32-28.14-65.55-28.14-25.39,0-47.48,9.46-65.68,28.17s-27.27,41.42-27.27,67.8A96.57,96.57,0,0,0,381.73,550a89,89,0,0,0,33.91,34.5,95.67,95.67,0,0,0,93.25,0A89,89,0,0,0,542.78,550a95.62,95.62,0,0,0,7.61-17.24A156.89,156.89,0,0,1,531.6,549.53Z" transform="translate(-341.57 -379.38)"/><path class="cls-1" d="M703.15,379.6S627.07,371,583,466s-96.75,114-120.69,111v45.76s120,4.18,172.57-149C634.83,473.75,642.42,416.76,703.15,379.6Z" transform="translate(-341.57 -379.38)"/><path class="cls-2" d="M475.77,575.82c-4.35.91-6.86,1.15-6.86,1.15.5-.13,1-.26,1.48-.43C472.2,576.38,474,576.12,475.77,575.82Z" transform="translate(-341.57 -379.38)"/><path class="cls-1" d="M1523.91,395.88V607.82h-26.22V571.39q-16.73,20.85-37.53,31.37a99.44,99.44,0,0,1-45.51,10.52q-43.89,0-75-32.63t-31.07-79.39q0-45.76,31.36-78.3t75.43-32.54q25.47,0,46.08,11.11t36.2,33.31v-39Zm-108.58,21.26a82.45,82.45,0,0,0-72.88,42.74,86.09,86.09,0,0,0,.09,85.85,83.87,83.87,0,0,0,30.93,31.9,80.82,80.82,0,0,0,41.66,11.42,85.46,85.46,0,0,0,42.54-11.32,79.26,79.26,0,0,0,30.92-30.63q10.83-19.32,10.83-43.52,0-36.87-24.29-61.66T1415.33,417.14Z" transform="translate(-341.57 -379.38)"/><path class="cls-1" d="M1414.65,623.11c-31.92,0-59.54-12-82.08-35.68s-33.78-52.53-33.78-86.17c0-33,11.48-61.65,34.11-85.13s50.49-35.54,82.51-35.54c18.54,0,35.61,4.13,50.74,12.28a105.66,105.66,0,0,1,21.71,15.64V386h45.88V617.65h-45.88V595.82a114.64,114.64,0,0,1-23.26,15.71A109.72,109.72,0,0,1,1414.65,623.11Zm.76-222.86c-26.85,0-49.21,9.66-68.35,29.53s-28.6,43.35-28.6,71.48c0,28.82,9.27,52.57,28.35,72.61s41.14,29.57,67.84,29.57a90.19,90.19,0,0,0,41.08-9.46c12.54-6.34,24.08-16,34.29-28.74l17.5-21.82V598h6.56V405.71h-6.56V466l-17.88-25.48c-9.45-13.48-20.49-23.67-32.81-30.31S1430.66,400.25,1415.41,400.25Zm-.28,198.63a90.9,90.9,0,0,1-46.64-12.77A93.89,93.89,0,0,1,1334,550.54a95.91,95.91,0,0,1-.09-95.48,92.28,92.28,0,0,1,81.45-47.75c26.3,0,48.78,9.33,66.82,27.73s27.11,41.41,27.11,68.54c0,17.76-4.07,34-12.09,48.32a89.19,89.19,0,0,1-34.68,34.4A95.49,95.49,0,0,1,1415.13,598.88Zm.2-171.91A72.62,72.62,0,0,0,1351,464.7a76.28,76.28,0,0,0,.1,76.21,74.49,74.49,0,0,0,27.34,28.25,70.45,70.45,0,0,0,36.67,10.06,76,76,0,0,0,37.71-10.06A68.82,68.82,0,0,0,1480,542.29c6.35-11.33,9.57-24.36,9.57-38.71,0-22.11-7-40-21.48-54.77S1436.44,427,1415.33,427Z" transform="translate(-341.57 -379.38)"/><path class="cls-1" d="M1179.57,622.52s95.61,14,168.8-152.7L1314.77,440S1245,567.16,1216.36,567.33Z" transform="translate(-341.57 -379.38)"/><polygon class="cls-1" points="1146.29 6.66 1146.29 0 1192.17 0 1192.17 243.14 1146.29 243.14 1146.29 238.27 1167.69 124.2 1146.29 6.66"/><text class="cls-3" transform="translate(806.33 315.89)">WEB STUDIO</text><path class="cls-1" d="M1180.13,389.67q49.11,0,81.41,35.55,29.34,32.43,29.35,76.78,0,44.54-31,77.84t-79.74,33.31q-48.93,0-79.94-33.31t-31-77.84q0-44.14,29.36-76.58Q1130.81,389.67,1180.13,389.67Zm-.1,26.76q-34.11,0-58.62,25.2t-24.5,60.95a86.43,86.43,0,0,0,11.18,43,79,79,0,0,0,30.19,30.76,85.77,85.77,0,0,0,83.51,0A79.17,79.17,0,0,0,1252,545.56a86.42,86.42,0,0,0,11.17-43q0-35.74-24.6-60.95T1180,416.43Z" transform="translate(-341.57 -379.38)"/><path class="cls-1" d="M1180.13,623c-35.31,0-64.62-12.26-87.14-36.44-22.33-24-33.65-52.42-33.65-84.54,0-31.82,10.73-59.8,31.9-83.18,23.36-25.86,53.27-39,88.89-39s65.32,13.05,88.69,38.77c21.17,23.4,31.9,51.45,31.9,83.39,0,32.12-11.32,60.56-33.65,84.54C1244.56,610.72,1215.3,623,1180.13,623Zm0-223.48c-30.25,0-54.55,10.64-74.31,32.51-18,19.94-26.81,42.83-26.81,70,0,27.36,9.28,50.64,28.37,71.14,18.91,20.3,42.71,30.18,72.75,30.18s53.64-9.88,72.55-30.18c19.09-20.5,28.38-43.78,28.38-71.14s-8.77-50.24-26.81-70.18C1234.5,410.08,1210.25,399.5,1180.13,399.5ZM1180,597a92.94,92.94,0,0,1-46.63-12.13,89.22,89.22,0,0,1-33.89-34.5,96.52,96.52,0,0,1-12.43-47.79c0-26.37,9.18-49.18,27.28-67.8s40.28-28.18,65.67-28.18,47.31,9.48,65.55,28.17,27.4,41.43,27.4,67.81a96.55,96.55,0,0,1-12.43,47.79,89.28,89.28,0,0,1-33.89,34.5A92.94,92.94,0,0,1,1180,597Zm0-170.73c-20.16,0-37,7.27-51.57,22.22s-21.72,32.72-21.72,54.09a77.09,77.09,0,0,0,9.92,38.17,68.87,68.87,0,0,0,26.48,27,76,76,0,0,0,73.78,0,68.87,68.87,0,0,0,26.48-27,77.15,77.15,0,0,0,9.92-38.17c0-21.36-7.13-39.05-21.81-54.08S1200.06,426.27,1180,426.27Z" transform="translate(-341.57 -379.38)"/><path class="cls-1" d="M1038.83,519.75A166.06,166.06,0,0,1,1027.36,533a156.89,156.89,0,0,1-18.79,16.76A78.06,78.06,0,0,1,981,576.21a85.84,85.84,0,0,1-83.51,0,79.1,79.1,0,0,1-30.19-30.76,86.32,86.32,0,0,1-11.17-43q0-35.76,24.49-60.94t58.63-25.2q33.88,0,58.51,25.2a88.27,88.27,0,0,1,13.34,17.41q3-4.8,5.76-9.37c1.63-2.68,3.2-5.3,4.7-7.83,1.91-3.2,3.71-6.28,5.4-9.21q-2.92-3.78-6.21-7.41-32.28-35.56-81.42-35.55-49.29,0-81.61,35.74-29.33,32.42-29.34,76.57,0,44.54,31,77.85T939.32,613q48.75,0,79.76-33.3,30.45-32.68,31-76.21A177.08,177.08,0,0,1,1038.83,519.75Z" transform="translate(-341.57 -379.38)"/><path class="cls-1" d="M1008.57,549.77A148.18,148.18,0,0,1,966,572.45,72.38,72.38,0,0,1,952.85,576a.26.26,0,0,1-.11,0c-1.77.3-3.56.57-5.37.72a75.9,75.9,0,0,1-45-9.11,68.74,68.74,0,0,1-26.48-27A76.91,76.91,0,0,1,866,502.47c0-21.37,7.1-39.07,21.72-54.08s31.4-22.22,51.57-22.22,36.86,7.25,51.48,22.22a77.57,77.57,0,0,1,14.36,20.09q3.1-4.86,6-9.54t5.76-9.37a101.91,101.91,0,0,0-12.06-14.93C986.54,416,964.47,406.5,939.24,406.5c-25.39,0-47.48,9.46-65.68,28.17s-27.27,41.42-27.27,67.8a96.57,96.57,0,0,0,12.41,47.78,89,89,0,0,0,33.91,34.5,95.67,95.67,0,0,0,93.25,0,89,89,0,0,0,33.89-34.5,95.62,95.62,0,0,0,7.61-17.24A156.89,156.89,0,0,1,1008.57,549.77Zm50.56-62.58c-2.86,5.82-5.9,11.23-9.07,16.33a177.08,177.08,0,0,1-11.23,16.23c-3.26,19.84-12.15,37.39-26.94,53.27C993,593.34,969.24,603.2,939.32,603.2s-53.83-9.86-72.73-30.18c-19.1-20.49-28.39-43.76-28.39-71.14,0-27.16,8.76-50,26.81-70,19.78-21.87,44.07-32.49,74.31-32.49s54.39,10.58,74.12,32.32a110.45,110.45,0,0,1,8.11,10c1.91-3.2,3.71-6.28,5.4-9.21,1.88-3.25,3.63-6.32,5.25-9.18-1.35-1.64-2.74-3.25-4.19-4.85-23.38-25.72-53.2-38.76-88.69-38.76s-65.52,13.11-88.88,39c-21.17,23.38-31.9,51.34-31.9,83.16,0,32.14,11.32,60.59,33.65,84.56,22.52,24.16,51.82,36.42,87.13,36.42s64.44-12.26,86.95-36.42c22.33-24,33.64-52.42,33.64-84.56A136.64,136.64,0,0,0,1059.13,487.19Zm-50.56,62.58A148.18,148.18,0,0,1,966,572.45,72.38,72.38,0,0,1,952.85,576a.26.26,0,0,1-.11,0c-1.77.3-3.56.57-5.37.72a75.9,75.9,0,0,1-45-9.11,68.74,68.74,0,0,1-26.48-27A76.91,76.91,0,0,1,866,502.47c0-21.37,7.1-39.07,21.72-54.08s31.4-22.22,51.57-22.22,36.86,7.25,51.48,22.22a77.57,77.57,0,0,1,14.36,20.09q3.1-4.86,6-9.54t5.76-9.37a101.91,101.91,0,0,0-12.06-14.93C986.54,416,964.47,406.5,939.24,406.5c-25.39,0-47.48,9.46-65.68,28.17s-27.27,41.42-27.27,67.8a96.57,96.57,0,0,0,12.41,47.78,89,89,0,0,0,33.91,34.5,95.67,95.67,0,0,0,93.25,0,89,89,0,0,0,33.89-34.5,95.62,95.62,0,0,0,7.61-17.24A156.89,156.89,0,0,1,1008.57,549.77Zm0,0A148.18,148.18,0,0,1,966,572.45,72.38,72.38,0,0,1,952.85,576a.26.26,0,0,1-.11,0c-1.77.3-3.56.57-5.37.72a75.9,75.9,0,0,1-45-9.11,68.74,68.74,0,0,1-26.48-27A76.91,76.91,0,0,1,866,502.47c0-21.37,7.1-39.07,21.72-54.08s31.4-22.22,51.57-22.22,36.86,7.25,51.48,22.22a77.57,77.57,0,0,1,14.36,20.09q3.1-4.86,6-9.54t5.76-9.37a101.91,101.91,0,0,0-12.06-14.93C986.54,416,964.47,406.5,939.24,406.5c-25.39,0-47.48,9.46-65.68,28.17s-27.27,41.42-27.27,67.8a96.57,96.57,0,0,0,12.41,47.78,89,89,0,0,0,33.91,34.5,95.67,95.67,0,0,0,93.25,0,89,89,0,0,0,33.89-34.5,95.62,95.62,0,0,0,7.61-17.24A156.89,156.89,0,0,1,1008.57,549.77Z" transform="translate(-341.57 -379.38)"/><path class="cls-1" d="M1180.13,379.84s-76.08-8.62-120.2,86.36-96.75,114-120.69,111V623s120,4.18,172.57-149C1111.81,474,1119.4,417,1180.13,379.84Z" transform="translate(-341.57 -379.38)"/><path class="cls-2" d="M952.75,576.06a68.29,68.29,0,0,1-6.87,1.16c.51-.13,1-.27,1.49-.44C949.18,576.63,951,576.36,952.75,576.06Z" transform="translate(-341.57 -379.38)"/></svg>