<svg xmlns="http://www.w3.org/2000/svg" viewBox="0 0 643.48 1035.72"><rect x="0.09" y="-0.24" width="641.91" height="1034.08" fill="#fff" stroke="#000" stroke-miterlimit="10" stroke-width="0.33"/><polyline points="415.32 212.72 450.57 247.97 522.98 247.97 522.98 290.56" fill="none" stroke="#000" stroke-miterlimit="10" stroke-width="0.33"/><polyline points="463.85 171.35 504.57 212.07 580.34 212.07 580.34 266.48 633.84 266.48 633.84 174.32 566.23 174.32" fill="none" stroke="#000" stroke-miterlimit="10" stroke-width="0.33"/><polyline points="372.53 124.13 329.87 105.91 231.44 105.91 176.04 161.3 176.04 212.72" fill="none" stroke="#000" stroke-miterlimit="10" stroke-width="0.33"/><polyline points="206.51 130.84 107.07 130.84 47.23 190.68" fill="none" stroke="#000" stroke-miterlimit="10" stroke-width="0.33"/><polyline points="71.52 166.39 71.52 294.97 37.98 328.51 8.11 328.51 8.11 498.24 89.35 566.86 89.35 658.55" fill="none" stroke="#000" stroke-miterlimit="10" stroke-width="0.33"/><polyline points="71.52 277.24 126.87 277.24 126.87 210.15 158.22 210.15" fill="none" stroke="#000" stroke-miterlimit="10" stroke-width="0.33"/><polyline points="202.19 318.87 173.31 347.75 176.04 377.11" fill="none" stroke="#000" stroke-miterlimit="10" stroke-width="0.33"/><polyline points="347.87 445.74 347.87 467.57 331.4 484.03 331.4 500.25 187.75 500.25 187.75 448.05" fill="none" stroke="#000" stroke-miterlimit="10" stroke-width="0.33"/><polyline points="433.32 174.23 467.93 139.62 467.93 96.44 412.98 96.44" fill="none" stroke="#000" stroke-miterlimit="10" stroke-width="0.33"/><polyline points="452.81 154.74 452.81 123.59 403.62 123.59" fill="none" stroke="#000" stroke-miterlimit="10" stroke-width="0.33"/><polyline points="96.9 141.01 29.17 141.01 29.17 246.69" fill="none" stroke="#000" stroke-miterlimit="10" stroke-width="0.33"/><polyline points="29.17 232.68 89.35 232.68 89.35 184.64" fill="none" stroke="#000" stroke-miterlimit="10" stroke-width="0.33"/><polyline points="592.35 172.34 592.35 116.77 532.94 96.44" fill="none" stroke="#000" stroke-miterlimit="10" stroke-width="0.33"/><polyline points="595.94 266.48 595.94 325.64 481.21 325.64" fill="none" stroke="#000" stroke-miterlimit="10" stroke-width="0.33"/><polyline points="528.84 379.39 633.84 379.39 633.84 500.25 548.84 500.25 514.95 442.41" fill="none" stroke="#000" stroke-miterlimit="10" stroke-width="0.33"/><polyline points="612.58 379.39 612.58 492.56 558.42 492.56 525.99 443.08" fill="none" stroke="#000" stroke-miterlimit="10" stroke-width="0.33"/><polyline points="252.5 478.18 206.51 492.56 12.84 492.56 86.68 455.11" fill="none" stroke="#000" stroke-miterlimit="10" stroke-width="0.33"/><polyline points="143.95 439.82 143.95 480.31 89.35 492.56" fill="none" stroke="#000" stroke-miterlimit="10" stroke-width="0.33"/><polyline points="116.65 786.06 116.65 844.94 243.48 868.69 527.62 868.69 558.9 868.69" fill="none" stroke="#000" stroke-miterlimit="10" stroke-width="0.33"/><polyline points="295.28 500.25 374.69 525.2 458.78 525.2 458.78 541.87" fill="none" stroke="#000" stroke-miterlimit="10" stroke-width="0.33"/><polyline points="614.73 500.25 589.25 525.73 511.76 525.73" fill="none" stroke="#000" stroke-miterlimit="10" stroke-width="0.33"/><polyline points="29.17 780.25 29.17 875.52 116.65 909.66 116.65 958.71" fill="none" stroke="#000" stroke-miterlimit="10" stroke-width="0.33"/><polyline points="181.78 1034.01 181.78 974.94 151.6 912.4 151.6 880.98" fill="none" stroke="#000" stroke-miterlimit="10" stroke-width="0.33"/><polyline points="181.78 990.08 245.14 990.08 259.37 1010.73" fill="none" stroke="#000" stroke-miterlimit="10" stroke-width="0.33"/><polyline points="579.22 1034.01 538.57 979.27 538.57 916.49" fill="none" stroke="#000" stroke-miterlimit="10" stroke-width="0.33"/><polyline points="538.57 979.27 487.83 1010.73 487.83 964 463.85 964" fill="none" stroke="#000" stroke-miterlimit="10" stroke-width="0.33"/><polyline points="243.48 868.69 243.48 908.74 220.58 924.69" fill="none" stroke="#000" stroke-miterlimit="10" stroke-width="0.33"/><polyline points="478.74 869.48 444.84 903.38 444.84 948.78" fill="none" stroke="#000" stroke-miterlimit="10" stroke-width="0.33"/><polyline points="65.52 697.97 29.17 697.97 29.17 549.1 0.25 549.1" fill="none" stroke="#000" stroke-miterlimit="10" stroke-width="0.33"/><polyline points="621.1 628.32 630.3 666.41 630.3 848.21" fill="none" stroke="#000" stroke-miterlimit="10" stroke-width="0.33"/><polyline points="625.62 879.88 625.62 923.59 573.04 969.22" fill="none" stroke="#000" stroke-miterlimit="10" stroke-width="0.33"/><line x1="630.3" y1="804.84" x2="621.1" y2="804.84" fill="none" stroke="#000" stroke-miterlimit="10" stroke-width="0.33"/></svg>